<?xml version="1.0" encoding="utf-8"?>
<!-- Generator: Adobe Illustrator 16.0.0, SVG Export Plug-In . SVG Version: 6.00 Build 0)  -->
<!DOCTYPE svg PUBLIC "-//W3C//DTD SVG 1.1//EN" "http://www.w3.org/Graphics/SVG/1.1/DTD/svg11.dtd">
<svg version="1.1" id="Layer_1" xmlns="http://www.w3.org/2000/svg" xmlns:xlink="http://www.w3.org/1999/xlink" x="0px" y="0px"
	 width="717px" height="400px" viewBox="0 0 717 400" style="enable-background:new 0 0 717 400;" xml:space="preserve">
<style type="text/css">
<![CDATA[
	.st0{opacity:0.25;}
	.st1{opacity:0.36;}
	.st2{opacity:0.87;fill:#0C0D0D;}
	.st3{fill:#FFFFFF;}
	.st4{opacity:0.25;fill:#0C0C0C;}
	.st5{fill:#010101;}
	.st6{fill:#0C0C0C;}
]]>
</style>
<path class="st4" d="M547.6,60.5c-0.4,0-47.7,0-48,0c-5.4,0-5.4,5.4-5.4,5.4v110.7c0,0,0.4,5.4,5.4,5.4c0.3,0,47.7,0,48,0
	c5,0,5.4-5.4,5.4-5.4V65.9C553,65.9,553,60.5,547.6,60.5z M523.6,65.5c0.6,0,1.2,0.5,1.2,1.2s-0.5,1.2-1.2,1.2
	c-0.6,0-1.2-0.5-1.2-1.2S522.9,65.5,523.6,65.5z M519.5,69.7L519.5,69.7l7.7,0v0c0.1,0,0.1,0,0.2,0c0.6,0,1.2,0.5,1.2,1.2
	s-0.5,1.2-1.2,1.2c-0.1,0-0.1,0-0.2,0v0h-7.7v0c-0.5-0.1-1-0.6-1-1.1C518.6,70.3,519,69.8,519.5,69.7z M523.6,178.5
	c-3,0-5.4-2.4-5.4-5.4c0-3,2.4-5.4,5.4-5.4c3,0,5.4,2.4,5.4,5.4C529,176.1,526.5,178.5,523.6,178.5z M549.1,164.3H498V77.8h51.1
	V164.3z"/>
<path class="st4" d="M54.2,147.2l-3.5-8.6l-3.5,8.6l-4.7,16v95.3v8.6v1.7v9.1v0.9v0.9c0,0,0,2.6,2.6,2.6c2.6,0,8.6,0,11.2,0
	c2.6,0,2.6-2.6,2.6-2.6v-0.9v-0.9v-9.1v-1.7v-8.6v-95.3L54.2,147.2z M55.1,278.3h-8.6c0,0,0-8.6,0-8.6h8.6V278.3z M55.1,265.4h-8.6
	V261h8.6V265.4z M56.4,163.2c-0.1,0-0.2,0-0.3,0c-1.2,0-2.3-1.2-2.7-2.3c-0.4,1.1-1.4,2.6-2.7,2.6c-1.2,0-2.3-1.5-2.7-2.6
	c-0.4,1.1-1.4,2.3-2.7,2.3c-0.1,0-0.2,0-0.3,0l4-12.6h3.2L56.4,163.2z"/>
<g class="st0">
	<path class="st6" d="M180.2,268.2c5.6,0,6-6,6-6V144.6c0,0,0-6-6-6c-0.4,0-95.5,0-95.9,0c-6,0-6,6-6,6V275c0,0,0.4,6,6,6
		c0.4,0,95.5,0,95.9,0c5.6,0,6-6,6-6v-4.1c0,0-4,0-9.1,0v3.4h-89v-6.1C88.2,268.2,179.8,268.2,180.2,268.2z M105.9,174h52.7v35.9
		h-52.7V174z"/>
	<g>
		<path class="st6" d="M142.6,201c-0.5,0-1-0.2-1.4-0.6l-3.8-3.8l-3.8,3.8c-0.8,0.8-2,0.8-2.7,0l-3.8-3.8l-3.8,3.8
			c-0.8,0.8-2,0.8-2.7,0c-0.8-0.8-0.8-2,0-2.7l5.2-5.2c0.8-0.8,2-0.8,2.7,0l3.8,3.8l3.8-3.8c0.8-0.8,2-0.8,2.7,0l5.2,5.2
			c0.8,0.8,0.8,2,0,2.7C143.6,200.9,143.1,201,142.6,201z"/>
	</g>
	<g>
		<path class="st6" d="M142.6,190c-0.5,0-1-0.2-1.4-0.6l-3.8-3.8l-3.8,3.8c-0.8,0.8-2,0.8-2.7,0l-3.8-3.8l-3.8,3.8
			c-0.8,0.8-2,0.8-2.7,0c-0.8-0.8-0.8-2,0-2.7l5.2-5.2c0.8-0.8,2-0.8,2.7,0l3.8,3.8l3.8-3.8c0.8-0.8,2-0.8,2.7,0l5.2,5.2
			c0.8,0.8,0.8,2,0,2.7C143.6,189.9,143.1,190,142.6,190z"/>
	</g>
</g>
<g class="st0">
	<path class="st2" d="M678.6,228.9l-119.7-14c-6.2-1.1-6.2,3.9-6.2,3.9s-5.6,43.6-8.4,64.9c-0.3,2.7-1,8.4-1.3,11
		c-0.2,1.2-0.5,2.5,0.6,3.5c0.8,0.8,2.5,1.3,3.7,1.6c-5.3-0.8-9.1,2.3-9.1,2.3l-46.6,34.6c-2.5,7.4,2.8,8.4,2.8,8.4
		s121.3,30.6,126.9,32.1c6.9,1.8,10.6-3.9,10.6-3.9s29.7-35.5,33.8-41.5c3.2-4.7,0.6-7.3,0.6-7.3s13.4-77.6,14.9-87.8
		C682.3,229.2,678.6,228.9,678.6,228.9z M662.5,316.2l-114.4-21.8l9.5-73.8l117.7,14L662.5,316.2z"/>
	<g>
		<path class="st3" d="M544.7,309.3c1.8-1.3,5-2,7.1-1.6l92.2,19.7c2.2,0.5,2.7,2.2,1.2,3.8l-12.9,14.1c-1.5,1.6-4.5,2.5-6.6,2
			l-96.2-22.8c-2.1-0.5-2.4-2-0.7-3.3L544.7,309.3z"/>
	</g>
	<g>
		<path class="st3" d="M573,355.4c-0.8,0.8-2.3,1.2-3.3,1l-29.4-7.3c-1.1-0.3-1.3-1.1-0.4-1.8l10.2-8.9c0.8-0.7,2.4-1.1,3.5-0.9
			l27.9,6.6c1.1,0.3,1.3,1.1,0.6,1.9L573,355.4z"/>
	</g>
</g>
<g>
	<g>
		<g class="st1">
			<path class="st5" d="M275.9,158.2c-0.6,1.2-1.4,2-2.2,2.4c-0.8,0.4-1.6,0.7-2.4,0.7c-0.9,0.1-1.8-0.1-2.6-0.4
				c-0.3-0.6-0.7-1.5-1.1-2.7c-0.5-1.1-1-2.4-1.6-3.8c-0.6-1.4-1.2-2.9-1.9-4.4c-0.7-1.6-1.3-3-1.9-4.5c-0.6-1.4-1.1-2.7-1.6-3.9
				c-0.5-1.2-0.8-2.1-1.1-2.7c-0.1-0.3-0.3-0.6-0.4-1c-0.1-0.3-0.3-0.6-0.4-0.9c-0.1-0.3-0.3-0.6-0.4-1c1.1-0.2,2.1-0.3,3-0.3
				c0.8,0.1,1.6,0.3,2.5,0.7c0.8,0.4,1.5,1.2,2,2.3c0.1,0.4,0.3,0.9,0.6,1.6c0.3,0.7,0.5,1.4,0.8,2.1c0.3,0.8,0.6,1.6,1,2.4
				c0.3,0.8,0.7,1.7,1,2.5c0.7,1.9,1.6,4,2.4,6.3c0.8-2.3,1.7-4.4,2.4-6.3c0.3-0.8,0.7-1.7,1-2.5c0.4-0.8,0.7-1.7,1-2.4
				c0.3-0.8,0.6-1.5,0.8-2.1c0.2-0.7,0.5-1.2,0.6-1.6c0.5-1.1,1.1-1.9,2-2.3c0.8-0.4,1.7-0.6,2.5-0.7c1-0.1,2,0,3,0.3
				c-0.1,0.3-0.3,0.6-0.4,0.9c-0.1,0.3-0.2,0.6-0.4,0.9c-0.1,0.3-0.3,0.7-0.4,1c-0.2,0.7-0.6,1.5-1,2.6c-0.4,1.1-0.9,2.2-1.4,3.5
				c-0.5,1.3-1,2.5-1.5,3.9c-0.5,1.3-1.1,2.6-1.6,3.8c-0.5,1.2-1,2.3-1.4,3.3C276.5,156.9,276.1,157.7,275.9,158.2z"/>
			<path class="st5" d="M293.9,128.2c-0.7,1.2-1.8,1.9-3.1,1.9c-0.6,0-1.1-0.1-1.6-0.4c-0.5-0.3-0.9-0.7-1.2-1.2
				c-0.3-0.5-0.4-1.1-0.4-1.7c0-0.7,0.2-1.3,0.5-1.8c0.3-0.6,0.8-1.1,1.3-1.4c0.6-0.3,1.1-0.5,1.7-0.5c0.5,0,1,0.1,1.5,0.4
				c0.6,0.3,1,0.7,1.3,1.2c0.3,0.5,0.4,1.1,0.4,1.7C294.4,127.1,294.2,127.7,293.9,128.2z M298,155.5c-0.2,0.2-0.5,0.5-0.9,0.6
				c-0.4,0.2-0.8,0.2-1.3,0.1c-0.4-0.1-0.8-0.3-1.1-0.7c-0.3-0.4-0.5-1-0.5-1.8v-12.7c0-1.1,0-1.9,0-2.6c0-0.7,0-1.2,0.1-1.6
				c0-0.4,0.1-0.8,0.1-1c-2.2,0-3.8,0.5-5,1.4c-1.1,0.9-1.7,2.4-1.7,4.6l-0.1,12.5c0,0.9,0.1,1.7,0.4,2.5c0.3,0.8,0.7,1.5,1.2,2.1
				c0.5,0.6,1.2,1.1,2,1.4c0.8,0.3,1.8,0.4,2.9,0.3c1.1-0.1,2-0.4,2.5-1c0.5-0.6,0.9-1.2,1.1-1.8C298,157.3,298.1,156.5,298,155.5z"
				/>
			<path class="st5" d="M313.1,154.1c0.1-0.6-0.1-1.1-0.5-1.5c-0.4-0.4-1-0.8-1.7-1.2c-0.8-0.4-1.7-0.8-2.7-1.2
				c-1-0.4-2.1-1-3.2-1.7c-0.8-0.5-1.5-1.1-2.1-1.8c-0.5-0.7-0.9-1.4-1.2-2.2c-0.2-0.8-0.4-1.6-0.3-2.4c0-0.8,0.2-1.6,0.6-2.5
				c0.4-0.8,0.8-1.4,1.4-2c0.6-0.5,1.2-1,1.9-1.3c0.7-0.3,1.4-0.6,2.1-0.7c0.7-0.1,1.4-0.2,2-0.2h0.6c1.9,0.1,3.6,0.6,5.1,1.4
				c1.6,0.8,2.9,1.9,4,3.2l0.2,0.2l-0.2,0.2c-0.4,0.5-0.7,0.9-1.2,1.1c-0.4,0.2-0.8,0.4-1.3,0.4c-0.5,0-1-0.1-1.4-0.3
				c-0.5-0.2-1-0.4-1.5-0.6c-0.7-0.3-1.3-0.5-1.9-0.7c-0.6-0.2-1.2-0.3-1.8-0.3c-0.8,0-1.4,0.2-1.7,0.5c-0.4,0.3-0.6,0.7-0.7,1.2
				c-0.1,0.7,0.1,1.2,0.6,1.7c0.5,0.4,1.2,0.9,2.2,1.2c1.1,0.5,2.3,1,3.5,1.5c1.2,0.5,2.3,1.2,3.3,2c1,0.8,1.7,1.7,2.2,2.9
				c0.5,1.1,0.5,2.5,0.2,4.1c-0.2,0.6-0.5,1.3-0.9,2c-0.4,0.7-1,1.3-1.8,1.9c-0.8,0.6-1.7,1-2.8,1.4c-1.1,0.4-2.3,0.6-3.8,0.6
				c-0.3,0-0.5,0-0.7-0.1c-1.7-0.1-3.4-0.5-5-1.3c-1.6-0.8-3-1.9-4.1-3.2l-0.2-0.2l0.2-0.2c0.2-0.3,0.4-0.5,0.6-0.7
				c0.2-0.2,0.4-0.3,0.6-0.5c0.4-0.2,0.8-0.3,1.3-0.3c0.5,0,1,0.1,1.4,0.3c0.5,0.2,1,0.4,1.5,0.6c0.5,0.2,1,0.5,1.7,0.6
				c0.6,0.2,1.3,0.3,2,0.4c1.3,0,2.2-0.2,2.7-0.7C312.7,155.1,313,154.6,313.1,154.1z"/>
			<path class="st5" d="M346.5,149.4c0,2.4-0.4,4.3-1.1,5.8c-0.7,1.5-1.6,2.6-2.7,3.5c-1.1,0.8-2.4,1.4-3.7,1.7
				c-1.4,0.3-2.7,0.5-4.1,0.5c-1.3,0-2.7-0.2-4.1-0.5c-1.4-0.3-2.6-0.9-3.7-1.7c-1.1-0.8-2-2-2.7-3.5c-0.7-1.5-1-3.4-1-5.8l0.1-7.5
				c0-2.1,0.6-3.6,1.7-4.5c1.1-0.9,2.8-1.3,5-1.3c0,0.2-0.1,0.5-0.1,1c0,0.4-0.1,0.9-0.1,1.6c0,0.7,0,1.5,0,2.6l0.1,8.2
				c0,1.5,0.1,2.7,0.4,3.6c0.3,0.9,0.7,1.6,1.1,2.1c0.5,0.5,1,0.8,1.6,1c0.6,0.2,1.2,0.3,1.8,0.3c0.6,0,1.2-0.1,1.8-0.3
				c0.6-0.2,1.1-0.5,1.6-1c0.5-0.5,0.9-1.2,1.1-2.1c0.3-0.9,0.4-2.1,0.4-3.6l0.1-7.5c0-2.1,0.6-3.6,1.7-4.5c1.2-0.9,2.8-1.3,5-1.3
				c0,0.2-0.1,0.5-0.1,1c0,0.4-0.1,0.9-0.1,1.6c0,0.7,0,1.5,0,2.6L346.5,149.4z"/>
			<path class="st5" d="M353.7,146.8c1-0.6,2-1.1,3.2-1.3c1.2-0.3,2.5-0.5,3.8-0.5c1.8,0,3.6,0.3,5.2,0.8c-0.1-1.1-0.3-2.1-0.7-2.9
				c-0.5-1.1-1.1-1.9-2.1-2.4c-0.4-0.2-0.7-0.3-1.1-0.4c-0.4-0.1-0.9-0.1-1.4-0.1h-0.6c-0.5,0-1,0.1-1.5,0.2c-0.5,0.1-1,0.3-1.5,0.4
				c-0.5,0.2-1,0.3-1.5,0.5c-0.5,0.1-1,0.2-1.4,0.2c-0.5,0-1-0.1-1.4-0.3c-0.4-0.2-0.8-0.7-1.1-1.2l-0.1-0.2l0.1-0.2
				c1.1-1.1,2.3-2,3.7-2.7c1.4-0.7,3-1.1,4.7-1.2c0.2,0,0.3-0.1,0.5-0.1c0.1,0,0.3,0,0.4,0c1.6,0,3.1,0.3,4.4,0.9
				c1.3,0.6,2.5,1.4,3.5,2.4c2,2.2,3.1,5.1,3.1,8.6v0.4c0,3.7-0.9,6.7-2.8,8.9c-0.9,1.1-2,2-3.3,2.8c-1.3,0.7-2.7,1.1-4.3,1.3
				c-0.2,0-0.4,0.1-0.6,0.1c-0.2,0-0.4,0-0.7,0c-0.7,0-1.5-0.1-2.3-0.2c-0.8-0.1-1.6-0.4-2.4-0.7c-0.8-0.3-1.6-0.7-2.2-1.2
				c-0.7-0.5-1.2-1.2-1.7-2c-0.7-1-1-2.3-1.1-3.8v-0.3c0-1.4,0.3-2.5,0.8-3.4C352,148.3,352.7,147.5,353.7,146.8z M364.7,149.4
				c-0.5-0.1-1-0.1-1.6-0.2c-0.6-0.1-1.2-0.1-1.8-0.1c-0.5,0-1,0-1.4,0.1s-0.9,0.2-1.3,0.3c-0.9,0.3-1.6,0.7-2,1.3
				c-0.2,0.2-0.3,0.4-0.4,0.7c-0.1,0.3-0.2,0.6-0.2,0.9c0,0.1-0.1,0.3-0.1,0.5c0,0.4,0.1,0.7,0.2,1.1c0.1,0.4,0.3,0.8,0.6,1.1
				c0.3,0.4,0.7,0.7,1.2,0.9c0.5,0.2,1.3,0.4,2.2,0.4c0.3,0,0.5,0,0.6-0.1c1,0,1.9-0.3,2.6-0.8c0.4-0.2,0.7-0.5,0.9-0.8
				c0.2-0.3,0.5-0.6,0.6-1c0.4-0.7,0.7-1.4,0.8-2.1c0.1-0.7,0.2-1.4,0.2-2c0,0-0.1,0-0.1,0c0,0,0,0-0.1,0c-0.1,0-0.3-0.1-0.5-0.1
				C365.2,149.5,364.9,149.4,364.7,149.4z"/>
			<path class="st5" d="M386.8,155.5c0.1,0.9,0,1.7-0.2,2.5c-0.2,0.6-0.5,1.2-1.1,1.8c-0.5,0.6-1.4,0.9-2.5,1c-1.1,0.1-2,0-2.9-0.3
				c-0.8-0.3-1.5-0.8-2-1.4c-0.5-0.6-1-1.3-1.2-2.1c-0.3-0.8-0.4-1.7-0.4-2.5v-25.8c0-1.1-0.1-1.9-0.1-2.6c0-0.7,0-1.2-0.1-1.6
				c0-0.4-0.1-0.8-0.1-1c2.2,0,3.9,0.5,5,1.4c1.2,0.9,1.7,2.4,1.7,4.5v24.4c0,0.8,0.2,1.5,0.5,1.8c0.3,0.4,0.7,0.6,1.1,0.7
				c0.4,0.1,0.8,0,1.3-0.1C386.4,156,386.7,155.8,386.8,155.5z"/>
			<path class="st5" d="M397.2,128.2c-0.7,1.2-1.8,1.9-3.1,1.9c-0.6,0-1.1-0.1-1.6-0.4c-0.5-0.3-0.9-0.7-1.2-1.2
				c-0.3-0.5-0.4-1.1-0.4-1.7c0-0.7,0.2-1.3,0.5-1.8c0.3-0.6,0.8-1.1,1.3-1.4c0.6-0.3,1.1-0.5,1.7-0.5c0.5,0,1,0.1,1.5,0.4
				c0.6,0.3,1,0.7,1.3,1.2c0.3,0.5,0.4,1.1,0.4,1.7C397.6,127.1,397.5,127.7,397.2,128.2z M401.3,155.5c-0.2,0.2-0.5,0.5-0.9,0.6
				c-0.4,0.2-0.8,0.2-1.3,0.1s-0.8-0.3-1.1-0.7c-0.3-0.4-0.5-1-0.5-1.8v-12.7c0-1.1,0-1.9,0-2.6c0-0.7,0-1.2,0.1-1.6
				c0-0.4,0.1-0.8,0.1-1c-2.2,0-3.8,0.5-5,1.4c-1.1,0.9-1.7,2.4-1.7,4.6l-0.1,12.5c0,0.9,0.1,1.7,0.4,2.5c0.3,0.8,0.7,1.5,1.2,2.1
				c0.5,0.6,1.2,1.1,2,1.4c0.8,0.3,1.8,0.4,2.9,0.3c1.1-0.1,2-0.4,2.5-1c0.5-0.6,0.9-1.2,1.1-1.8
				C401.3,157.3,401.4,156.5,401.3,155.5z"/>
			<path class="st5" d="M421.7,156.4c0.9,0.9,1.4,2.2,1.4,3.8l-19.6,0.1c-0.2-1-0.3-1.9-0.2-3c0.1-0.9,0.3-1.9,0.7-2.9
				c0.4-1.1,1.2-2.1,2.2-3.2c0.3-0.3,0.8-0.8,1.3-1.4c0.6-0.6,1.2-1.2,1.9-1.9c0.7-0.7,1.4-1.4,2.1-2.1c0.7-0.7,1.4-1.4,2-2
				c0.6-0.6,1.2-1.1,1.7-1.5c0.5-0.4,0.8-0.7,0.9-0.7h-7.8c-1.6,0-2.9-0.5-3.8-1.4c-0.9-1-1.3-2.2-1.3-3.8h19.6c0.3,1,0.4,2,0.3,3
				c-0.1,0.9-0.3,1.9-0.8,2.9c-0.4,1.1-1.2,2.1-2.3,3.1c-0.3,0.2-0.7,0.7-1.3,1.2c-0.6,0.6-1.2,1.2-2,1.9c-0.7,0.7-1.5,1.4-2.2,2.2
				c-0.8,0.8-1.4,1.5-2.1,2.1c-0.6,0.6-1.3,1.4-2.1,2.2h7.4C419.5,155,420.8,155.5,421.7,156.4z"/>
			<path class="st5" d="M446.5,155.2c0.4,0.2,0.8,0.7,1.2,1.3l0.2,0.2l-0.2,0.2c-1.2,1.3-2.6,2.3-4.2,3c-1.6,0.7-3.3,1.1-5.2,1.1
				c-1.6,0-3.1-0.3-4.6-1c-1.4-0.7-2.7-1.6-3.8-2.7c-1.1-1.1-1.9-2.5-2.5-4c-0.6-1.5-0.9-3.2-0.9-5c0-1.8,0.3-3.4,0.8-5
				c0.5-1.5,1.3-2.9,2.4-4c1-1.1,2.3-2,3.7-2.7c1.5-0.7,3.1-1,4.9-1c1,0,2.1,0.2,3.3,0.5c1.2,0.3,2.3,0.8,3.3,1.4
				c1,0.7,1.9,1.5,2.5,2.6c0.7,1.1,1,2.3,1,3.8c0,1.4-0.4,2.6-1.1,3.5c-0.7,0.9-1.6,1.6-2.6,2.1c-1,0.5-2.1,0.9-3.3,1.1
				c-1.1,0.2-2.1,0.3-3,0.3c-1.3,0-2.4-0.1-3.4-0.2c-1-0.2-1.6-0.3-2-0.3c0.1,1.3,0.4,2.3,0.8,3.1s0.9,1.4,1.4,1.9
				c0.5,0.5,1.1,0.8,1.6,0.9c0.5,0.2,1,0.2,1.4,0.2c0.7,0,1.4-0.1,2.1-0.2c0.7-0.1,1.3-0.3,1.8-0.5c0.5-0.2,1-0.4,1.5-0.5
				c0.5-0.2,0.9-0.3,1.4-0.3C445.7,154.8,446.1,154.9,446.5,155.2z M438.4,140c-0.4,0-0.8,0.1-1.4,0.3c-0.5,0.2-1.1,0.4-1.6,0.9
				c-0.5,0.4-1,1-1.4,1.8c-0.4,0.8-0.7,1.8-0.9,3c0.6,0.2,1.4,0.3,2.4,0.5c1,0.2,2.1,0.2,3.1,0.1c1-0.1,2-0.4,2.8-0.9
				c0.8-0.5,1.2-1.3,1.3-2.5c0.1-0.9-0.3-1.6-1-2.3S439.8,139.9,438.4,140z"/>
		</g>
		<g>
			<g>
				<path class="st3" d="M273.9,156.2c-0.6,1.2-1.4,2-2.2,2.4c-0.8,0.4-1.6,0.7-2.4,0.7c-0.9,0.1-1.8-0.1-2.6-0.4
					c-0.3-0.6-0.7-1.5-1.1-2.7c-0.5-1.1-1-2.4-1.6-3.8c-0.6-1.4-1.2-2.9-1.9-4.4c-0.7-1.6-1.3-3-1.9-4.5c-0.6-1.4-1.1-2.7-1.6-3.9
					c-0.5-1.2-0.8-2.1-1.1-2.7c-0.1-0.3-0.3-0.6-0.4-1c-0.1-0.3-0.3-0.6-0.4-0.9c-0.1-0.3-0.3-0.6-0.4-1c1.1-0.2,2.1-0.3,3-0.3
					c0.8,0.1,1.6,0.3,2.5,0.7c0.8,0.4,1.5,1.2,2,2.3c0.1,0.4,0.3,0.9,0.6,1.6c0.3,0.7,0.5,1.4,0.8,2.1c0.3,0.8,0.6,1.6,1,2.4
					c0.3,0.8,0.7,1.7,1,2.5c0.7,1.9,1.6,4,2.4,6.3c0.8-2.3,1.7-4.4,2.4-6.3c0.3-0.8,0.7-1.7,1-2.5c0.4-0.8,0.7-1.7,1-2.4
					c0.3-0.8,0.6-1.5,0.8-2.1c0.2-0.7,0.5-1.2,0.6-1.6c0.5-1.1,1.1-1.9,2-2.3c0.8-0.4,1.7-0.6,2.5-0.7c1-0.1,2,0,3,0.3
					c-0.1,0.3-0.3,0.6-0.4,0.9c-0.1,0.3-0.2,0.6-0.4,0.9c-0.1,0.3-0.3,0.7-0.4,1c-0.2,0.7-0.6,1.5-1,2.6c-0.4,1.1-0.9,2.2-1.4,3.5
					c-0.5,1.3-1,2.5-1.5,3.9c-0.5,1.3-1.1,2.6-1.6,3.8c-0.5,1.2-1,2.3-1.4,3.3C274.5,154.9,274.1,155.7,273.9,156.2z"/>
				<path class="st3" d="M291.9,126.2c-0.7,1.2-1.8,1.9-3.1,1.9c-0.6,0-1.1-0.1-1.6-0.4c-0.5-0.3-0.9-0.7-1.2-1.2
					c-0.3-0.5-0.4-1.1-0.4-1.7c0-0.7,0.2-1.3,0.5-1.8c0.3-0.6,0.8-1.1,1.3-1.4c0.6-0.3,1.1-0.5,1.7-0.5c0.5,0,1,0.1,1.5,0.4
					c0.6,0.3,1,0.7,1.3,1.2c0.3,0.5,0.4,1.1,0.4,1.7C292.4,125.1,292.2,125.7,291.9,126.2z M296,153.5c-0.2,0.2-0.5,0.5-0.9,0.6
					c-0.4,0.2-0.8,0.2-1.3,0.1c-0.4-0.1-0.8-0.3-1.1-0.7c-0.3-0.4-0.5-1-0.5-1.8v-12.7c0-1.1,0-1.9,0-2.6c0-0.7,0-1.2,0.1-1.6
					c0-0.4,0.1-0.8,0.1-1c-2.2,0-3.8,0.5-5,1.4c-1.1,0.9-1.7,2.4-1.7,4.6l-0.1,12.5c0,0.9,0.1,1.7,0.4,2.5c0.3,0.8,0.7,1.5,1.2,2.1
					c0.5,0.6,1.2,1.1,2,1.4c0.8,0.3,1.8,0.4,2.9,0.3c1.1-0.1,2-0.4,2.5-1c0.5-0.6,0.9-1.2,1.1-1.8C296,155.3,296.1,154.5,296,153.5z
					"/>
				<path class="st3" d="M311.1,152.1c0.1-0.6-0.1-1.1-0.5-1.5c-0.4-0.4-1-0.8-1.7-1.2c-0.8-0.4-1.7-0.8-2.7-1.2
					c-1-0.4-2.1-1-3.2-1.7c-0.8-0.5-1.5-1.1-2.1-1.8c-0.5-0.7-0.9-1.4-1.2-2.2c-0.2-0.8-0.4-1.6-0.3-2.4c0-0.8,0.2-1.6,0.6-2.5
					c0.4-0.8,0.8-1.4,1.4-2c0.6-0.5,1.2-1,1.9-1.3c0.7-0.3,1.4-0.6,2.1-0.7c0.7-0.1,1.4-0.2,2-0.2h0.6c1.9,0.1,3.6,0.6,5.1,1.4
					c1.6,0.8,2.9,1.9,4,3.2l0.2,0.2l-0.2,0.2c-0.4,0.5-0.7,0.9-1.2,1.1c-0.4,0.2-0.8,0.4-1.3,0.4c-0.5,0-1-0.1-1.4-0.3
					c-0.5-0.2-1-0.4-1.5-0.6c-0.7-0.3-1.3-0.5-1.9-0.7c-0.6-0.2-1.2-0.3-1.8-0.3c-0.8,0-1.4,0.2-1.7,0.5c-0.4,0.3-0.6,0.7-0.7,1.2
					c-0.1,0.7,0.1,1.2,0.6,1.7c0.5,0.4,1.2,0.9,2.2,1.2c1.1,0.5,2.3,1,3.5,1.5c1.2,0.5,2.3,1.2,3.3,2c1,0.8,1.7,1.7,2.2,2.9
					c0.5,1.1,0.5,2.5,0.2,4.1c-0.2,0.6-0.5,1.3-0.9,2c-0.4,0.7-1,1.3-1.8,1.9c-0.8,0.6-1.7,1-2.8,1.4c-1.1,0.4-2.3,0.6-3.8,0.6
					c-0.3,0-0.5,0-0.7-0.1c-1.7-0.1-3.4-0.5-5-1.3c-1.6-0.8-3-1.9-4.1-3.2l-0.2-0.2l0.2-0.2c0.2-0.3,0.4-0.5,0.6-0.7
					c0.2-0.2,0.4-0.3,0.6-0.5c0.4-0.2,0.8-0.3,1.3-0.3c0.5,0,1,0.1,1.4,0.3c0.5,0.2,1,0.4,1.5,0.6c0.5,0.2,1,0.5,1.7,0.6
					c0.6,0.2,1.3,0.3,2,0.4c1.3,0,2.2-0.2,2.7-0.7C310.7,153.1,311,152.6,311.1,152.1z"/>
				<path class="st3" d="M344.5,147.4c0,2.4-0.4,4.3-1.1,5.8c-0.7,1.5-1.6,2.6-2.7,3.5c-1.1,0.8-2.4,1.4-3.7,1.7
					c-1.4,0.3-2.7,0.5-4.1,0.5c-1.3,0-2.7-0.2-4.1-0.5c-1.4-0.3-2.6-0.9-3.7-1.7c-1.1-0.8-2-2-2.7-3.5c-0.7-1.5-1-3.4-1-5.8l0.1-7.5
					c0-2.1,0.6-3.6,1.7-4.5c1.1-0.9,2.8-1.3,5-1.3c0,0.2-0.1,0.5-0.1,1c0,0.4-0.1,0.9-0.1,1.6c0,0.7,0,1.5,0,2.6l0.1,8.2
					c0,1.5,0.1,2.7,0.4,3.6c0.3,0.9,0.7,1.6,1.1,2.1c0.5,0.5,1,0.8,1.6,1c0.6,0.2,1.2,0.3,1.8,0.3c0.6,0,1.2-0.1,1.8-0.3
					c0.6-0.2,1.1-0.5,1.6-1c0.5-0.5,0.9-1.2,1.1-2.1c0.3-0.9,0.4-2.1,0.4-3.6l0.1-7.5c0-2.1,0.6-3.6,1.7-4.5c1.2-0.9,2.8-1.3,5-1.3
					c0,0.2-0.1,0.5-0.1,1c0,0.4-0.1,0.9-0.1,1.6c0,0.7,0,1.5,0,2.6L344.5,147.4z"/>
				<path class="st3" d="M351.7,144.8c1-0.6,2-1.1,3.2-1.3c1.2-0.3,2.5-0.5,3.8-0.5c1.8,0,3.6,0.3,5.2,0.8c-0.1-1.1-0.3-2.1-0.7-2.9
					c-0.5-1.1-1.1-1.9-2.1-2.4c-0.4-0.2-0.7-0.3-1.1-0.4c-0.4-0.1-0.9-0.1-1.4-0.1h-0.6c-0.5,0-1,0.1-1.5,0.2
					c-0.5,0.1-1,0.3-1.5,0.4c-0.5,0.2-1,0.3-1.5,0.5c-0.5,0.1-1,0.2-1.4,0.2c-0.5,0-1-0.1-1.4-0.3c-0.4-0.2-0.8-0.7-1.1-1.2
					l-0.1-0.2l0.1-0.2c1.1-1.1,2.3-2,3.7-2.7c1.4-0.7,3-1.1,4.7-1.2c0.2,0,0.3-0.1,0.5-0.1c0.1,0,0.3,0,0.4,0c1.6,0,3.1,0.3,4.4,0.9
					c1.3,0.6,2.5,1.4,3.5,2.4c2,2.2,3.1,5.1,3.1,8.6v0.4c0,3.7-0.9,6.7-2.8,8.9c-0.9,1.1-2,2-3.3,2.8c-1.3,0.7-2.7,1.1-4.3,1.3
					c-0.2,0-0.4,0.1-0.6,0.1c-0.2,0-0.4,0-0.7,0c-0.7,0-1.5-0.1-2.3-0.2c-0.8-0.1-1.6-0.4-2.4-0.7c-0.8-0.3-1.6-0.7-2.2-1.2
					c-0.7-0.5-1.2-1.2-1.7-2c-0.7-1-1-2.3-1.1-3.8v-0.3c0-1.4,0.3-2.5,0.8-3.4C350,146.3,350.7,145.5,351.7,144.8z M362.7,147.4
					c-0.5-0.1-1-0.1-1.6-0.2c-0.6-0.1-1.2-0.1-1.8-0.1c-0.5,0-1,0-1.4,0.1c-0.5,0.1-0.9,0.2-1.3,0.3c-0.9,0.3-1.6,0.7-2,1.3
					c-0.2,0.2-0.3,0.4-0.4,0.7c-0.1,0.3-0.2,0.6-0.2,0.9c0,0.1-0.1,0.3-0.1,0.5c0,0.4,0.1,0.7,0.2,1.1c0.1,0.4,0.3,0.8,0.6,1.1
					c0.3,0.4,0.7,0.7,1.2,0.9c0.5,0.2,1.3,0.4,2.2,0.4c0.3,0,0.5,0,0.6-0.1c1,0,1.9-0.3,2.6-0.8c0.4-0.2,0.7-0.5,0.9-0.8
					c0.2-0.3,0.5-0.6,0.6-1c0.4-0.7,0.7-1.4,0.8-2.1c0.1-0.7,0.2-1.4,0.2-2c0,0-0.1,0-0.1,0c0,0,0,0-0.1,0c-0.1,0-0.3-0.1-0.5-0.1
					C363.2,147.5,362.9,147.4,362.7,147.4z"/>
				<path class="st3" d="M384.8,153.5c0.1,0.9,0,1.7-0.2,2.5c-0.2,0.6-0.5,1.2-1.1,1.8c-0.5,0.6-1.4,0.9-2.5,1c-1.1,0.1-2,0-2.9-0.3
					c-0.8-0.3-1.5-0.8-2-1.4c-0.5-0.6-1-1.3-1.2-2.1c-0.3-0.8-0.4-1.7-0.4-2.5v-25.8c0-1.1-0.1-1.9-0.1-2.6c0-0.7,0-1.2-0.1-1.6
					c0-0.4-0.1-0.8-0.1-1c2.2,0,3.9,0.5,5,1.4c1.2,0.9,1.7,2.4,1.7,4.5v24.4c0,0.8,0.2,1.5,0.5,1.8c0.3,0.4,0.7,0.6,1.1,0.7
					c0.4,0.1,0.8,0,1.3-0.1C384.4,154,384.7,153.8,384.8,153.5z"/>
				<path class="st3" d="M395.2,126.2c-0.7,1.2-1.8,1.9-3.1,1.9c-0.6,0-1.1-0.1-1.6-0.4c-0.5-0.3-0.9-0.7-1.2-1.2
					c-0.3-0.5-0.4-1.1-0.4-1.7c0-0.7,0.2-1.3,0.5-1.8c0.3-0.6,0.8-1.1,1.3-1.4c0.6-0.3,1.1-0.5,1.7-0.5c0.5,0,1,0.1,1.5,0.4
					c0.6,0.3,1,0.7,1.3,1.2c0.3,0.5,0.4,1.1,0.4,1.7C395.6,125.1,395.5,125.7,395.2,126.2z M399.3,153.5c-0.2,0.2-0.5,0.5-0.9,0.6
					c-0.4,0.2-0.8,0.2-1.3,0.1s-0.8-0.3-1.1-0.7c-0.3-0.4-0.5-1-0.5-1.8v-12.7c0-1.1,0-1.9,0-2.6c0-0.7,0-1.2,0.1-1.6
					c0-0.4,0.1-0.8,0.1-1c-2.2,0-3.8,0.5-5,1.4c-1.1,0.9-1.7,2.4-1.7,4.6l-0.1,12.5c0,0.9,0.1,1.7,0.4,2.5c0.3,0.8,0.7,1.5,1.2,2.1
					c0.5,0.6,1.2,1.1,2,1.4c0.8,0.3,1.8,0.4,2.9,0.3c1.1-0.1,2-0.4,2.5-1c0.5-0.6,0.9-1.2,1.1-1.8
					C399.3,155.3,399.4,154.5,399.3,153.5z"/>
				<path class="st3" d="M419.7,154.4c0.9,0.9,1.4,2.2,1.4,3.8l-19.6,0.1c-0.2-1-0.3-1.9-0.2-3c0.1-0.9,0.3-1.9,0.7-2.9
					c0.4-1.1,1.2-2.1,2.2-3.2c0.3-0.3,0.8-0.8,1.3-1.4c0.6-0.6,1.2-1.2,1.9-1.9c0.7-0.7,1.4-1.4,2.1-2.1c0.7-0.7,1.4-1.4,2-2
					c0.6-0.6,1.2-1.1,1.7-1.5c0.5-0.4,0.8-0.7,0.9-0.7h-7.8c-1.6,0-2.9-0.5-3.8-1.4c-0.9-1-1.3-2.2-1.3-3.8h19.6c0.3,1,0.4,2,0.3,3
					c-0.1,0.9-0.3,1.9-0.8,2.9c-0.4,1.1-1.2,2.1-2.3,3.1c-0.3,0.2-0.7,0.7-1.3,1.2c-0.6,0.6-1.2,1.2-2,1.9c-0.7,0.7-1.5,1.4-2.2,2.2
					c-0.8,0.8-1.4,1.5-2.1,2.1c-0.6,0.6-1.3,1.4-2.1,2.2h7.4C417.5,153,418.8,153.5,419.7,154.4z"/>
				<path class="st3" d="M444.5,153.2c0.4,0.2,0.8,0.7,1.2,1.3l0.2,0.2l-0.2,0.2c-1.2,1.3-2.6,2.3-4.2,3c-1.6,0.7-3.3,1.1-5.2,1.1
					c-1.6,0-3.1-0.3-4.6-1c-1.4-0.7-2.7-1.6-3.8-2.7c-1.1-1.1-1.9-2.5-2.5-4c-0.6-1.5-0.9-3.2-0.9-5c0-1.8,0.3-3.4,0.8-5
					c0.5-1.5,1.3-2.9,2.4-4c1-1.1,2.3-2,3.7-2.7c1.5-0.7,3.1-1,4.9-1c1,0,2.1,0.2,3.3,0.5c1.2,0.3,2.3,0.8,3.3,1.4
					c1,0.7,1.9,1.5,2.5,2.6c0.7,1.1,1,2.3,1,3.8c0,1.4-0.4,2.6-1.1,3.5c-0.7,0.9-1.6,1.6-2.6,2.1c-1,0.5-2.1,0.9-3.3,1.1
					c-1.1,0.2-2.1,0.3-3,0.3c-1.3,0-2.4-0.1-3.4-0.2c-1-0.2-1.6-0.3-2-0.3c0.1,1.3,0.4,2.3,0.8,3.1s0.9,1.4,1.4,1.9
					c0.5,0.5,1.1,0.8,1.6,0.9c0.5,0.2,1,0.2,1.4,0.2c0.7,0,1.4-0.1,2.1-0.2c0.7-0.1,1.3-0.3,1.8-0.5c0.5-0.2,1-0.4,1.5-0.5
					c0.5-0.2,0.9-0.3,1.4-0.3C443.7,152.8,444.1,152.9,444.5,153.2z M436.4,138c-0.4,0-0.8,0.1-1.4,0.3c-0.5,0.2-1.1,0.4-1.6,0.9
					c-0.5,0.4-1,1-1.4,1.8c-0.4,0.8-0.7,1.8-0.9,3c0.6,0.2,1.4,0.3,2.4,0.5c1,0.2,2.1,0.2,3.1,0.1c1-0.1,2-0.4,2.8-0.9
					c0.8-0.5,1.2-1.3,1.3-2.5c0.1-0.9-0.3-1.6-1-2.3S437.8,137.9,436.4,138z"/>
			</g>
		</g>
	</g>
	<g>
		<g class="st1">
			<path class="st5" d="M294.5,247.7c-0.7,1.2-1.8,1.9-3.1,1.9c-0.6,0-1.1-0.1-1.6-0.4c-0.5-0.3-0.9-0.7-1.2-1.2
				c-0.3-0.5-0.4-1.1-0.4-1.7c0-0.7,0.2-1.3,0.5-1.8c0.3-0.6,0.8-1.1,1.3-1.4c0.6-0.3,1.1-0.5,1.7-0.5c0.5,0,1,0.1,1.5,0.4
				c0.6,0.3,1,0.7,1.3,1.2c0.3,0.5,0.4,1.1,0.4,1.7C295,246.6,294.8,247.2,294.5,247.7z M298.6,275c-0.2,0.2-0.5,0.5-0.9,0.6
				c-0.4,0.2-0.8,0.2-1.3,0.1c-0.4-0.1-0.8-0.3-1.1-0.7c-0.3-0.4-0.5-1-0.5-1.8v-12.7c0-1.1,0-1.9,0-2.6c0-0.7,0-1.2,0.1-1.6
				c0-0.4,0.1-0.8,0.1-1c-2.2,0-3.8,0.5-5,1.4c-1.1,0.9-1.7,2.4-1.7,4.6l-0.1,12.5c0,0.9,0.1,1.7,0.4,2.5c0.3,0.8,0.7,1.5,1.2,2.1
				s1.2,1.1,2,1.4c0.8,0.3,1.8,0.4,2.9,0.3c1.1-0.1,2-0.4,2.5-1c0.5-0.6,0.9-1.2,1.1-1.8C298.6,276.8,298.7,276,298.6,275z"/>
			<path class="st5" d="M324.8,267.7c0,1.7-0.3,3.4-0.8,4.9c-0.6,1.5-1.4,2.9-2.4,4.1c-1,1.1-2.3,2-3.7,2.7c-1.5,0.7-3.1,1-4.9,1
				c-1.6,0-3.2-0.3-4.6-1c-1.4-0.7-2.7-1.6-3.8-2.7c-1.1-1.1-1.9-2.5-2.5-4c-0.6-1.5-0.9-3.2-0.9-5s0.3-3.4,0.8-5
				c0.5-1.5,1.3-2.9,2.4-4.1c1-1.1,2.3-2,3.7-2.7c1.5-0.7,3.1-1,4.9-1c2,0,3.8,0.5,5.4,1.4l-0.1-7.5c0-2.1,0.6-3.6,1.7-4.5
				c1.2-0.9,2.8-1.3,5-1.3c0,0.2-0.1,0.5-0.1,1c0,0.4-0.1,0.9-0.1,1.6c0,0.7,0,1.5,0,2.6L324.8,267.7z M312.9,275.8
				c0.5,0,1-0.1,1.6-0.3c0.6-0.2,1.2-0.6,1.8-1.2c0.6-0.6,1-1.4,1.4-2.5c0.4-1.1,0.6-2.5,0.6-4.2s-0.2-3.1-0.6-4.2
				c-0.4-1.1-0.9-1.9-1.4-2.5c-0.6-0.6-1.2-1-1.8-1.2c-0.6-0.2-1.2-0.3-1.6-0.3c-0.5,0-1,0.1-1.6,0.3c-0.6,0.2-1.2,0.6-1.8,1.2
				c-0.6,0.6-1,1.4-1.4,2.5c-0.4,1.1-0.6,2.5-0.6,4.2s0.2,3.1,0.6,4.2c0.4,1.1,0.9,1.9,1.4,2.5c0.6,0.6,1.2,1,1.8,1.2
				C311.9,275.7,312.4,275.8,312.9,275.8z"/>
			<path class="st5" d="M348.9,274.7c0.4,0.2,0.8,0.7,1.2,1.3l0.2,0.2l-0.2,0.2c-1.2,1.3-2.6,2.3-4.2,3c-1.6,0.7-3.3,1.1-5.2,1.1
				c-1.6,0-3.2-0.3-4.6-1c-1.4-0.7-2.7-1.6-3.8-2.7c-1.1-1.1-1.9-2.5-2.5-4c-0.6-1.5-0.9-3.2-0.9-5s0.3-3.4,0.8-5s1.3-2.9,2.4-4.1
				c1-1.1,2.3-2,3.7-2.7c1.5-0.7,3.1-1,4.9-1c1,0,2.1,0.2,3.3,0.4c1.2,0.3,2.3,0.8,3.3,1.4c1,0.7,1.9,1.5,2.5,2.6
				c0.7,1.1,1,2.3,1,3.8c0,1.4-0.4,2.6-1.1,3.5c-0.7,0.9-1.6,1.6-2.6,2.1c-1,0.5-2.1,0.9-3.3,1.1c-1.1,0.2-2.1,0.3-3,0.3
				c-1.3,0-2.4-0.1-3.4-0.2c-1-0.2-1.6-0.3-2-0.3c0.1,1.3,0.4,2.3,0.8,3.1c0.4,0.8,0.9,1.4,1.4,1.9c0.5,0.5,1.1,0.8,1.6,0.9
				c0.5,0.2,1,0.2,1.4,0.2c0.7,0,1.4-0.1,2.1-0.2c0.7-0.1,1.3-0.3,1.8-0.5c0.5-0.2,1-0.4,1.5-0.5c0.5-0.2,0.9-0.3,1.4-0.3
				C348.1,274.3,348.6,274.4,348.9,274.7z M340.8,259.5c-0.4,0-0.8,0.1-1.4,0.3c-0.5,0.2-1.1,0.5-1.6,0.9c-0.5,0.4-1,1-1.4,1.8
				c-0.4,0.8-0.7,1.8-0.9,3c0.6,0.2,1.4,0.3,2.4,0.5c1,0.2,2.1,0.2,3.1,0.1c1-0.1,2-0.4,2.8-0.9c0.8-0.5,1.2-1.3,1.3-2.5
				c0.1-0.9-0.3-1.6-1-2.3C343.3,259.7,342.2,259.4,340.8,259.5z"/>
			<path class="st5" d="M357.8,266.3c1-0.6,2-1,3.2-1.3c1.2-0.3,2.5-0.5,3.8-0.5c1.8,0,3.6,0.3,5.2,0.8c-0.1-1.1-0.3-2.1-0.7-2.9
				c-0.5-1.1-1.1-1.9-2.1-2.4c-0.4-0.2-0.7-0.3-1.1-0.4c-0.4-0.1-0.9-0.1-1.4-0.1h-0.6c-0.5,0-1,0.1-1.5,0.2c-0.5,0.1-1,0.3-1.5,0.5
				c-0.5,0.2-1,0.3-1.5,0.4c-0.5,0.1-1,0.2-1.4,0.2c-0.5,0-1-0.1-1.4-0.3c-0.4-0.2-0.8-0.7-1.1-1.2l-0.1-0.2l0.1-0.2
				c1.1-1.1,2.3-2,3.7-2.7c1.4-0.7,3-1.1,4.7-1.2c0.2,0,0.3-0.1,0.5-0.1s0.3,0,0.5,0c1.6,0,3.1,0.3,4.4,0.9c1.3,0.6,2.5,1.4,3.5,2.4
				c2,2.2,3.1,5.1,3.1,8.6v0.4c0,3.7-0.9,6.7-2.8,8.9c-0.9,1.1-2,2-3.3,2.8c-1.3,0.7-2.7,1.1-4.3,1.3c-0.2,0-0.4,0.1-0.6,0.1
				s-0.4,0-0.7,0c-0.7,0-1.5-0.1-2.3-0.2c-0.8-0.1-1.6-0.4-2.4-0.7c-0.8-0.3-1.6-0.7-2.2-1.2c-0.7-0.5-1.2-1.2-1.7-2
				c-0.7-1-1-2.3-1.1-3.8v-0.3c0-1.4,0.3-2.5,0.8-3.4C356,267.8,356.8,267,357.8,266.3z M368.8,268.9c-0.5-0.1-1-0.1-1.6-0.2
				c-0.6-0.1-1.2-0.1-1.8-0.1c-0.5,0-1,0-1.4,0.1c-0.5,0.1-0.9,0.2-1.3,0.3c-0.9,0.3-1.6,0.7-2,1.3c-0.2,0.2-0.3,0.5-0.4,0.7
				c-0.1,0.3-0.2,0.6-0.2,0.9c0,0.1-0.1,0.3-0.1,0.5c0,0.4,0.1,0.7,0.2,1.1c0.1,0.4,0.3,0.8,0.6,1.1c0.3,0.4,0.7,0.7,1.2,0.9
				c0.5,0.2,1.3,0.4,2.2,0.4c0.3,0,0.5,0,0.6-0.1c1,0,1.9-0.3,2.6-0.8c0.4-0.2,0.7-0.5,0.9-0.8c0.2-0.3,0.5-0.6,0.6-1
				c0.4-0.7,0.7-1.4,0.8-2.1c0.1-0.7,0.2-1.4,0.2-2c0,0-0.1,0-0.1,0c0,0,0,0-0.1,0c-0.1,0-0.3-0.1-0.5-0.1
				C369.2,269,369,268.9,368.8,268.9z"/>
			<path class="st5" d="M394.6,275.2c0,0.1,0,0.2,0.1,0.4c0.1,0.3,0.1,0.5,0.1,0.8c0,0.6-0.1,1.2-0.4,1.7c-0.3,0.5-0.7,0.9-1.2,1.3
				c-1,0.7-2.2,1.1-3.6,1.1c-1.2,0-2.3-0.3-3.4-0.8c-1.1-0.5-2.2-1.3-3.1-2.4c-0.9-1.1-1.7-2.4-2.2-3.9c-0.5-1.6-0.8-3.4-0.8-5.5
				l0.1-15.3c0-2.1,0.6-3.6,1.7-4.6c1.1-0.9,2.8-1.4,4.9-1.4c0,0.2-0.1,0.6-0.1,1c0,0.4-0.1,0.9-0.1,1.6c0,0.7,0,1.5,0,2.6l0.1,3.3
				h7.1c0,1.6-0.4,2.9-1.3,3.8c-0.9,1-2.1,1.4-3.8,1.4h-2l-0.1,7.5c0,1.5,0.1,2.7,0.4,3.7c0.3,1,0.6,1.8,1.1,2.5
				c1,1.2,2.2,1.8,3.7,1.8c0.6,0,1.3-0.1,1.9-0.3C394,275.4,394.3,275.3,394.6,275.2z"/>
			<path class="st5" d="M416.6,274.7c0.4,0.2,0.8,0.7,1.2,1.3l0.2,0.2l-0.2,0.2c-1.2,1.3-2.6,2.3-4.2,3c-1.6,0.7-3.3,1.1-5.2,1.1
				c-1.6,0-3.2-0.3-4.6-1c-1.4-0.7-2.7-1.6-3.8-2.7c-1.1-1.1-1.9-2.5-2.5-4c-0.6-1.5-0.9-3.2-0.9-5s0.3-3.4,0.8-5
				c0.5-1.5,1.3-2.9,2.4-4.1c1-1.1,2.3-2,3.7-2.7c1.5-0.7,3.1-1,4.9-1c1,0,2.1,0.2,3.3,0.4c1.2,0.3,2.3,0.8,3.3,1.4
				c1,0.7,1.9,1.5,2.5,2.6c0.7,1.1,1,2.3,1,3.8c0,1.4-0.4,2.6-1.1,3.5c-0.7,0.9-1.6,1.6-2.6,2.1c-1,0.5-2.1,0.9-3.3,1.1
				c-1.1,0.2-2.1,0.3-3,0.3c-1.3,0-2.4-0.1-3.4-0.2c-1-0.2-1.6-0.3-2-0.3c0.1,1.3,0.4,2.3,0.8,3.1c0.4,0.8,0.9,1.4,1.4,1.9
				c0.5,0.5,1.1,0.8,1.6,0.9c0.5,0.2,1,0.2,1.4,0.2c0.7,0,1.4-0.1,2.1-0.2c0.7-0.1,1.3-0.3,1.8-0.5c0.5-0.2,1-0.4,1.5-0.5
				c0.5-0.2,0.9-0.3,1.4-0.3C415.8,274.3,416.2,274.4,416.6,274.7z M408.5,259.5c-0.4,0-0.8,0.1-1.4,0.3c-0.5,0.2-1.1,0.5-1.6,0.9
				c-0.5,0.4-1,1-1.4,1.8c-0.4,0.8-0.7,1.8-0.9,3c0.6,0.2,1.4,0.3,2.4,0.5c1,0.2,2.1,0.2,3.1,0.1c1-0.1,2-0.4,2.8-0.9
				c0.8-0.5,1.2-1.3,1.3-2.5c0.1-0.9-0.3-1.6-1-2.3C411,259.7,409.9,259.4,408.5,259.5z"/>
		</g>
		<g>
			<g>
				<path class="st3" d="M292.5,245.7c-0.7,1.2-1.8,1.9-3.1,1.9c-0.6,0-1.1-0.1-1.6-0.4c-0.5-0.3-0.9-0.7-1.2-1.2
					c-0.3-0.5-0.4-1.1-0.4-1.7c0-0.7,0.2-1.3,0.5-1.8c0.3-0.6,0.8-1.1,1.3-1.4c0.6-0.3,1.1-0.5,1.7-0.5c0.5,0,1,0.1,1.5,0.4
					c0.6,0.3,1,0.7,1.3,1.2c0.3,0.5,0.4,1.1,0.4,1.7C293,244.6,292.8,245.2,292.5,245.7z M296.6,273c-0.2,0.2-0.5,0.5-0.9,0.6
					c-0.4,0.2-0.8,0.2-1.3,0.1c-0.4-0.1-0.8-0.3-1.1-0.7c-0.3-0.4-0.5-1-0.5-1.8v-12.7c0-1.1,0-1.9,0-2.6c0-0.7,0-1.2,0.1-1.6
					c0-0.4,0.1-0.8,0.1-1c-2.2,0-3.8,0.5-5,1.4c-1.1,0.9-1.7,2.4-1.7,4.6l-0.1,12.5c0,0.9,0.1,1.7,0.4,2.5c0.3,0.8,0.7,1.5,1.2,2.1
					s1.2,1.1,2,1.4c0.8,0.3,1.8,0.4,2.9,0.3c1.1-0.1,2-0.4,2.5-1c0.5-0.6,0.9-1.2,1.1-1.8C296.6,274.8,296.7,274,296.6,273z"/>
				<path class="st3" d="M322.8,265.7c0,1.7-0.3,3.4-0.8,4.9c-0.6,1.5-1.4,2.9-2.4,4.1c-1,1.1-2.3,2-3.7,2.7c-1.5,0.7-3.1,1-4.9,1
					c-1.6,0-3.2-0.3-4.6-1c-1.4-0.7-2.7-1.6-3.8-2.7c-1.1-1.1-1.9-2.5-2.5-4c-0.6-1.5-0.9-3.2-0.9-5s0.3-3.4,0.8-5
					c0.5-1.5,1.3-2.9,2.4-4.1c1-1.1,2.3-2,3.7-2.7c1.5-0.7,3.1-1,4.9-1c2,0,3.8,0.5,5.4,1.4l-0.1-7.5c0-2.1,0.6-3.6,1.7-4.5
					c1.2-0.9,2.8-1.3,5-1.3c0,0.2-0.1,0.5-0.1,1c0,0.4-0.1,0.9-0.1,1.6c0,0.7,0,1.5,0,2.6L322.8,265.7z M310.9,273.8
					c0.5,0,1-0.1,1.6-0.3c0.6-0.2,1.2-0.6,1.8-1.2c0.6-0.6,1-1.4,1.4-2.5c0.4-1.1,0.6-2.5,0.6-4.2s-0.2-3.1-0.6-4.2
					c-0.4-1.1-0.9-1.9-1.4-2.5c-0.6-0.6-1.2-1-1.8-1.2c-0.6-0.2-1.2-0.3-1.6-0.3c-0.5,0-1,0.1-1.6,0.3c-0.6,0.2-1.2,0.6-1.8,1.2
					c-0.6,0.6-1,1.4-1.4,2.5c-0.4,1.1-0.6,2.5-0.6,4.2s0.2,3.1,0.6,4.2c0.4,1.1,0.9,1.9,1.4,2.5c0.6,0.6,1.2,1,1.8,1.2
					C309.9,273.7,310.4,273.8,310.9,273.8z"/>
				<path class="st3" d="M346.9,272.7c0.4,0.2,0.8,0.7,1.2,1.3l0.2,0.2l-0.2,0.2c-1.2,1.3-2.6,2.3-4.2,3c-1.6,0.7-3.3,1.1-5.2,1.1
					c-1.6,0-3.2-0.3-4.6-1c-1.4-0.7-2.7-1.6-3.8-2.7c-1.1-1.1-1.9-2.5-2.5-4c-0.6-1.5-0.9-3.2-0.9-5s0.3-3.4,0.8-5s1.3-2.9,2.4-4.1
					c1-1.1,2.3-2,3.7-2.7c1.5-0.7,3.1-1,4.9-1c1,0,2.1,0.2,3.3,0.4c1.2,0.3,2.3,0.8,3.3,1.4c1,0.7,1.9,1.5,2.5,2.6
					c0.7,1.1,1,2.3,1,3.8c0,1.4-0.4,2.6-1.1,3.5c-0.7,0.9-1.6,1.6-2.6,2.1c-1,0.5-2.1,0.9-3.3,1.1c-1.1,0.2-2.1,0.3-3,0.3
					c-1.3,0-2.4-0.1-3.4-0.2c-1-0.2-1.6-0.3-2-0.3c0.1,1.3,0.4,2.3,0.8,3.1c0.4,0.8,0.9,1.4,1.4,1.9c0.5,0.5,1.1,0.8,1.6,0.9
					c0.5,0.2,1,0.2,1.4,0.2c0.7,0,1.4-0.1,2.1-0.2c0.7-0.1,1.3-0.3,1.8-0.5c0.5-0.2,1-0.4,1.5-0.5c0.5-0.2,0.9-0.3,1.4-0.3
					C346.1,272.3,346.6,272.4,346.9,272.7z M338.8,257.5c-0.4,0-0.8,0.1-1.4,0.3c-0.5,0.2-1.1,0.5-1.6,0.9c-0.5,0.4-1,1-1.4,1.8
					c-0.4,0.8-0.7,1.8-0.9,3c0.6,0.2,1.4,0.3,2.4,0.5c1,0.2,2.1,0.2,3.1,0.1c1-0.1,2-0.4,2.8-0.9c0.8-0.5,1.2-1.3,1.3-2.5
					c0.1-0.9-0.3-1.6-1-2.3C341.3,257.7,340.2,257.4,338.8,257.5z"/>
				<path class="st3" d="M355.8,264.3c1-0.6,2-1,3.2-1.3c1.2-0.3,2.5-0.5,3.8-0.5c1.8,0,3.6,0.3,5.2,0.8c-0.1-1.1-0.3-2.1-0.7-2.9
					c-0.5-1.1-1.1-1.9-2.1-2.4c-0.4-0.2-0.7-0.3-1.1-0.4c-0.4-0.1-0.9-0.1-1.4-0.1h-0.6c-0.5,0-1,0.1-1.5,0.2
					c-0.5,0.1-1,0.3-1.5,0.5c-0.5,0.2-1,0.3-1.5,0.4c-0.5,0.1-1,0.2-1.4,0.2c-0.5,0-1-0.1-1.4-0.3c-0.4-0.2-0.8-0.7-1.1-1.2
					l-0.1-0.2l0.1-0.2c1.1-1.1,2.3-2,3.7-2.7c1.4-0.7,3-1.1,4.7-1.2c0.2,0,0.3-0.1,0.5-0.1s0.3,0,0.5,0c1.6,0,3.1,0.3,4.4,0.9
					c1.3,0.6,2.5,1.4,3.5,2.4c2,2.2,3.1,5.1,3.1,8.6v0.4c0,3.7-0.9,6.7-2.8,8.9c-0.9,1.1-2,2-3.3,2.8c-1.3,0.7-2.7,1.1-4.3,1.3
					c-0.2,0-0.4,0.1-0.6,0.1s-0.4,0-0.7,0c-0.7,0-1.5-0.1-2.3-0.2c-0.8-0.1-1.6-0.4-2.4-0.7c-0.8-0.3-1.6-0.7-2.2-1.2
					c-0.7-0.5-1.2-1.2-1.7-2c-0.7-1-1-2.3-1.1-3.8v-0.3c0-1.4,0.3-2.5,0.8-3.4C354,265.8,354.8,265,355.8,264.3z M366.8,266.9
					c-0.5-0.1-1-0.1-1.6-0.2c-0.6-0.1-1.2-0.1-1.8-0.1c-0.5,0-1,0-1.4,0.1c-0.5,0.1-0.9,0.2-1.3,0.3c-0.9,0.3-1.6,0.7-2,1.3
					c-0.2,0.2-0.3,0.5-0.4,0.7c-0.1,0.3-0.2,0.6-0.2,0.9c0,0.1-0.1,0.3-0.1,0.5c0,0.4,0.1,0.7,0.2,1.1c0.1,0.4,0.3,0.8,0.6,1.1
					c0.3,0.4,0.7,0.7,1.2,0.9c0.5,0.2,1.3,0.4,2.2,0.4c0.3,0,0.5,0,0.6-0.1c1,0,1.9-0.3,2.6-0.8c0.4-0.2,0.7-0.5,0.9-0.8
					c0.2-0.3,0.5-0.6,0.6-1c0.4-0.7,0.7-1.4,0.8-2.1c0.1-0.7,0.2-1.4,0.2-2c0,0-0.1,0-0.1,0c0,0,0,0-0.1,0c-0.1,0-0.3-0.1-0.5-0.1
					C367.2,267,367,266.9,366.8,266.9z"/>
				<path class="st3" d="M392.6,273.2c0,0.1,0,0.2,0.1,0.4c0.1,0.3,0.1,0.5,0.1,0.8c0,0.6-0.1,1.2-0.4,1.7c-0.3,0.5-0.7,0.9-1.2,1.3
					c-1,0.7-2.2,1.1-3.6,1.1c-1.2,0-2.3-0.3-3.4-0.8c-1.1-0.5-2.2-1.3-3.1-2.4c-0.9-1.1-1.7-2.4-2.2-3.9c-0.5-1.6-0.8-3.4-0.8-5.5
					l0.1-15.3c0-2.1,0.6-3.6,1.7-4.6c1.1-0.9,2.8-1.4,4.9-1.4c0,0.2-0.1,0.6-0.1,1c0,0.4-0.1,0.9-0.1,1.6c0,0.7,0,1.5,0,2.6l0.1,3.3
					h7.1c0,1.6-0.4,2.9-1.3,3.8c-0.9,1-2.1,1.4-3.8,1.4h-2l-0.1,7.5c0,1.5,0.1,2.7,0.4,3.7c0.3,1,0.6,1.8,1.1,2.5
					c1,1.2,2.2,1.8,3.7,1.8c0.6,0,1.3-0.1,1.9-0.3C392,273.4,392.3,273.3,392.6,273.2z"/>
				<path class="st3" d="M414.6,272.7c0.4,0.2,0.8,0.7,1.2,1.3l0.2,0.2l-0.2,0.2c-1.2,1.3-2.6,2.3-4.2,3c-1.6,0.7-3.3,1.1-5.2,1.1
					c-1.6,0-3.2-0.3-4.6-1c-1.4-0.7-2.7-1.6-3.8-2.7c-1.1-1.1-1.9-2.5-2.5-4c-0.6-1.5-0.9-3.2-0.9-5s0.3-3.4,0.8-5
					c0.5-1.5,1.3-2.9,2.4-4.1c1-1.1,2.3-2,3.7-2.7c1.5-0.7,3.1-1,4.9-1c1,0,2.1,0.2,3.3,0.4c1.2,0.3,2.3,0.8,3.3,1.4
					c1,0.7,1.9,1.5,2.5,2.6c0.7,1.1,1,2.3,1,3.8c0,1.4-0.4,2.6-1.1,3.5c-0.7,0.9-1.6,1.6-2.6,2.1c-1,0.5-2.1,0.9-3.3,1.1
					c-1.1,0.2-2.1,0.3-3,0.3c-1.3,0-2.4-0.1-3.4-0.2c-1-0.2-1.6-0.3-2-0.3c0.1,1.3,0.4,2.3,0.8,3.1c0.4,0.8,0.9,1.4,1.4,1.9
					c0.5,0.5,1.1,0.8,1.6,0.9c0.5,0.2,1,0.2,1.4,0.2c0.7,0,1.4-0.1,2.1-0.2c0.7-0.1,1.3-0.3,1.8-0.5c0.5-0.2,1-0.4,1.5-0.5
					c0.5-0.2,0.9-0.3,1.4-0.3C413.8,272.3,414.2,272.4,414.6,272.7z M406.5,257.5c-0.4,0-0.8,0.1-1.4,0.3c-0.5,0.2-1.1,0.5-1.6,0.9
					c-0.5,0.4-1,1-1.4,1.8c-0.4,0.8-0.7,1.8-0.9,3c0.6,0.2,1.4,0.3,2.4,0.5c1,0.2,2.1,0.2,3.1,0.1c1-0.1,2-0.4,2.8-0.9
					c0.8-0.5,1.2-1.3,1.3-2.5c0.1-0.9-0.3-1.6-1-2.3C409,257.7,407.9,257.4,406.5,257.5z"/>
			</g>
		</g>
	</g>
	<g>
		<g class="st1">
			<path class="st5" d="M291.6,188.1c-0.7,1.2-1.8,1.9-3.1,1.9c-0.6,0-1.1-0.1-1.6-0.4c-0.5-0.3-0.9-0.7-1.2-1.2
				c-0.3-0.5-0.4-1.1-0.4-1.7c0-0.7,0.2-1.3,0.5-1.8c0.3-0.6,0.8-1.1,1.3-1.4c0.6-0.3,1.1-0.5,1.7-0.5c0.5,0,1,0.1,1.5,0.4
				c0.6,0.3,1,0.7,1.3,1.2c0.3,0.5,0.4,1.1,0.4,1.7C292.1,186.9,291.9,187.5,291.6,188.1z M295.7,215.4c-0.2,0.2-0.5,0.5-0.9,0.6
				s-0.8,0.2-1.3,0.1c-0.4-0.1-0.8-0.3-1.1-0.7c-0.3-0.4-0.5-1-0.5-1.8V201c0-1.1,0-1.9,0-2.6c0-0.7,0-1.2,0.1-1.6
				c0-0.4,0.1-0.8,0.1-1c-2.2,0-3.8,0.5-5,1.4c-1.1,0.9-1.7,2.4-1.7,4.6l-0.1,12.5c0,0.9,0.1,1.7,0.4,2.5c0.3,0.8,0.7,1.5,1.2,2.1
				c0.5,0.6,1.2,1.1,2,1.4c0.8,0.3,1.8,0.4,2.9,0.3c1.1-0.1,2-0.4,2.5-1c0.5-0.6,0.9-1.2,1.1-1.8
				C295.7,217.2,295.8,216.3,295.7,215.4z"/>
			<path class="st5" d="M313,215.5c0,0.1,0,0.2,0.1,0.4c0.1,0.3,0.1,0.5,0.1,0.8c0,0.6-0.1,1.2-0.4,1.7c-0.3,0.5-0.7,0.9-1.2,1.3
				c-1,0.7-2.2,1.1-3.6,1.1c-1.2,0-2.3-0.3-3.4-0.8c-1.1-0.5-2.2-1.3-3.1-2.4c-0.9-1.1-1.7-2.4-2.2-3.9c-0.5-1.6-0.8-3.4-0.8-5.5
				l0.1-15.3c0-2.1,0.6-3.6,1.7-4.6c1.1-0.9,2.8-1.4,4.9-1.4c0,0.2-0.1,0.6-0.1,1c0,0.4-0.1,0.9-0.1,1.6c0,0.7,0,1.5,0,2.6l0.1,3.3
				h7.1c0,1.6-0.4,2.9-1.3,3.8s-2.1,1.4-3.8,1.4h-2l-0.1,7.5c0,1.5,0.1,2.7,0.4,3.7c0.3,1,0.6,1.8,1.1,2.5c1,1.2,2.2,1.8,3.7,1.8
				c0.6,0,1.3-0.1,1.9-0.3C312.3,215.7,312.7,215.6,313,215.5z"/>
			<path class="st5" d="M335,215c0.4,0.2,0.8,0.7,1.2,1.3l0.2,0.2l-0.2,0.2c-1.2,1.3-2.6,2.3-4.2,3c-1.6,0.7-3.3,1.1-5.2,1.1
				c-1.6,0-3.2-0.3-4.6-1c-1.4-0.7-2.7-1.6-3.8-2.7c-1.1-1.1-1.9-2.5-2.5-4c-0.6-1.5-0.9-3.2-0.9-5c0-1.8,0.3-3.4,0.8-5
				c0.5-1.5,1.3-2.9,2.4-4c1-1.1,2.3-2,3.7-2.7c1.5-0.7,3.1-1,4.9-1c1,0,2.1,0.2,3.3,0.4c1.2,0.3,2.3,0.8,3.3,1.4
				c1,0.7,1.9,1.5,2.5,2.6c0.7,1.1,1,2.3,1,3.8c0,1.4-0.4,2.6-1.1,3.5c-0.7,0.9-1.6,1.6-2.6,2.1c-1,0.5-2.1,0.9-3.3,1.1
				c-1.1,0.2-2.1,0.3-3,0.3c-1.3,0-2.4-0.1-3.4-0.2c-1-0.2-1.6-0.3-2-0.3c0.1,1.3,0.4,2.3,0.8,3.1c0.4,0.8,0.9,1.4,1.4,1.9
				c0.5,0.5,1.1,0.8,1.6,0.9c0.5,0.2,1,0.2,1.4,0.2c0.7,0,1.4-0.1,2.1-0.2c0.7-0.1,1.3-0.3,1.8-0.5c0.5-0.2,1-0.4,1.5-0.5
				c0.5-0.2,0.9-0.3,1.4-0.3C334.1,214.7,334.6,214.8,335,215z M326.8,199.8c-0.4,0-0.8,0.1-1.4,0.3c-0.5,0.2-1.1,0.5-1.6,0.9
				c-0.5,0.4-1,1-1.4,1.8c-0.4,0.8-0.7,1.8-0.9,3c0.6,0.2,1.4,0.3,2.4,0.5c1,0.2,2.1,0.2,3.1,0.1c1-0.1,2-0.4,2.8-0.9
				c0.8-0.5,1.2-1.3,1.3-2.5c0.1-0.9-0.3-1.6-1-2.3C329.4,200.1,328.3,199.8,326.8,199.8z"/>
			<path class="st5" d="M341,207.4c0-2.4,0.3-4.3,1-5.8c0.7-1.5,1.6-2.7,2.7-3.5c1.1-0.8,2.3-1.4,3.7-1.7c1.4-0.3,2.7-0.5,4.1-0.5
				h2.6c0.2,0.7,0.2,1.4,0.1,2.1c-0.1,0.5-0.3,1-0.7,1.5c-0.4,0.5-1.1,0.8-2,0.9c-0.6,0.1-1.2,0.2-1.8,0.4c-0.6,0.2-1.1,0.5-1.6,1
				c-0.5,0.5-0.8,1.2-1.1,2c-0.3,0.9-0.4,2.1-0.4,3.5v7.7c0,1.1,0,1.9,0,2.6c0,0.7,0,1.2,0.1,1.6c0,0.4,0.1,0.7,0.1,1
				c-2.2,0-3.8-0.4-5-1.3c-1.2-0.9-1.7-2.4-1.7-4.5V207.4z"/>
			<path class="st5" d="M360.7,206.7c1-0.6,2-1,3.2-1.3c1.2-0.3,2.5-0.5,3.8-0.5c1.8,0,3.6,0.3,5.2,0.8c-0.1-1.1-0.3-2.1-0.7-2.9
				c-0.5-1.1-1.1-1.9-2.1-2.4c-0.4-0.2-0.7-0.3-1.1-0.4c-0.4-0.1-0.9-0.1-1.4-0.1h-0.6c-0.5,0-1,0.1-1.5,0.2c-0.5,0.1-1,0.3-1.5,0.5
				c-0.5,0.2-1,0.3-1.5,0.5c-0.5,0.1-1,0.2-1.4,0.2c-0.5,0-1-0.1-1.4-0.3c-0.4-0.2-0.8-0.7-1.1-1.2l-0.1-0.2l0.1-0.2
				c1.1-1.1,2.3-2,3.7-2.7c1.4-0.7,3-1.1,4.7-1.2c0.2,0,0.3-0.1,0.5-0.1c0.1,0,0.3,0,0.4,0c1.6,0,3.1,0.3,4.4,0.9
				c1.3,0.6,2.5,1.4,3.5,2.4c2,2.2,3.1,5.1,3.1,8.6v0.4c0,3.7-0.9,6.7-2.8,9c-0.9,1.1-2,2-3.3,2.8c-1.3,0.7-2.7,1.1-4.3,1.3
				c-0.2,0-0.4,0.1-0.6,0.1c-0.2,0-0.4,0-0.7,0c-0.7,0-1.5-0.1-2.3-0.2c-0.8-0.1-1.6-0.4-2.4-0.7c-0.8-0.3-1.6-0.7-2.2-1.2
				c-0.7-0.5-1.2-1.2-1.7-2c-0.7-1-1-2.3-1.1-3.8v-0.3c0-1.4,0.3-2.5,0.8-3.4C358.9,208.1,359.7,207.3,360.7,206.7z M371.7,209.2
				c-0.5-0.1-1-0.1-1.6-0.2c-0.6-0.1-1.2-0.1-1.8-0.1c-0.5,0-1,0-1.4,0.1c-0.5,0.1-0.9,0.2-1.3,0.3c-0.9,0.3-1.6,0.7-2,1.3
				c-0.2,0.2-0.3,0.4-0.4,0.7s-0.2,0.6-0.2,0.9c0,0.1-0.1,0.3-0.1,0.5c0,0.4,0.1,0.7,0.2,1.1c0.1,0.4,0.3,0.8,0.6,1.1
				c0.3,0.4,0.7,0.7,1.2,0.9c0.5,0.2,1.3,0.4,2.2,0.4c0.3,0,0.5,0,0.6-0.1c1,0,1.9-0.3,2.6-0.8c0.4-0.2,0.7-0.5,0.9-0.8
				c0.2-0.3,0.5-0.6,0.6-1c0.4-0.7,0.7-1.4,0.8-2.1c0.1-0.7,0.2-1.4,0.2-2c0,0-0.1,0-0.1,0s0,0-0.1,0c-0.1,0-0.3-0.1-0.5-0.1
				C372.1,209.3,371.9,209.3,371.7,209.2z"/>
			<path class="st5" d="M397.6,215.5c0,0.1,0,0.2,0.1,0.4c0.1,0.3,0.1,0.5,0.1,0.8c0,0.6-0.1,1.2-0.4,1.7s-0.7,0.9-1.2,1.3
				c-1,0.7-2.2,1.1-3.6,1.1c-1.2,0-2.3-0.3-3.4-0.8c-1.1-0.5-2.2-1.3-3.1-2.4c-0.9-1.1-1.7-2.4-2.2-3.9c-0.5-1.6-0.8-3.4-0.8-5.5
				l0.1-15.3c0-2.1,0.6-3.6,1.7-4.6c1.1-0.9,2.8-1.4,4.9-1.4c0,0.2-0.1,0.6-0.1,1c0,0.4-0.1,0.9-0.1,1.6c0,0.7,0,1.5,0,2.6l0.1,3.3
				h7.1c0,1.6-0.4,2.9-1.3,3.8c-0.9,1-2.1,1.4-3.8,1.4h-2l-0.1,7.5c0,1.5,0.1,2.7,0.4,3.7c0.3,1,0.6,1.8,1.1,2.5
				c1,1.2,2.2,1.8,3.7,1.8c0.6,0,1.3-0.1,1.9-0.3C396.9,215.7,397.2,215.6,397.6,215.5z"/>
			<path class="st5" d="M419.5,215c0.4,0.2,0.8,0.7,1.2,1.3l0.2,0.2l-0.2,0.2c-1.2,1.3-2.6,2.3-4.2,3c-1.6,0.7-3.3,1.1-5.2,1.1
				c-1.6,0-3.2-0.3-4.6-1c-1.4-0.7-2.7-1.6-3.8-2.7c-1.1-1.1-1.9-2.5-2.5-4c-0.6-1.5-0.9-3.2-0.9-5c0-1.8,0.3-3.4,0.8-5
				c0.5-1.5,1.3-2.9,2.4-4c1-1.1,2.3-2,3.7-2.7c1.5-0.7,3.1-1,4.9-1c1,0,2.1,0.2,3.3,0.4c1.2,0.3,2.3,0.8,3.3,1.4
				c1,0.7,1.9,1.5,2.5,2.6c0.7,1.1,1,2.3,1,3.8c0,1.4-0.4,2.6-1.1,3.5c-0.7,0.9-1.6,1.6-2.6,2.1c-1,0.5-2.1,0.9-3.3,1.1
				c-1.1,0.2-2.1,0.3-3,0.3c-1.3,0-2.4-0.1-3.4-0.2c-1-0.2-1.6-0.3-2-0.3c0.1,1.3,0.4,2.3,0.8,3.1s0.9,1.4,1.4,1.9
				c0.5,0.5,1.1,0.8,1.6,0.9c0.5,0.2,1,0.2,1.4,0.2c0.7,0,1.4-0.1,2.1-0.2c0.7-0.1,1.3-0.3,1.8-0.5c0.5-0.2,1-0.4,1.5-0.5
				c0.5-0.2,0.9-0.3,1.4-0.3C418.7,214.7,419.1,214.8,419.5,215z M411.4,199.8c-0.4,0-0.8,0.1-1.4,0.3s-1.1,0.5-1.6,0.9
				c-0.5,0.4-1,1-1.4,1.8c-0.4,0.8-0.7,1.8-0.9,3c0.6,0.2,1.4,0.3,2.4,0.5c1,0.2,2.1,0.2,3.1,0.1c1-0.1,2-0.4,2.8-0.9
				c0.8-0.5,1.2-1.3,1.3-2.5c0.1-0.9-0.3-1.6-1-2.3C413.9,200.1,412.8,199.8,411.4,199.8z"/>
		</g>
		<g>
			<g>
				<path class="st3" d="M289.6,186.1c-0.7,1.2-1.8,1.9-3.1,1.9c-0.6,0-1.1-0.1-1.6-0.4c-0.5-0.3-0.9-0.7-1.2-1.2
					c-0.3-0.5-0.4-1.1-0.4-1.7c0-0.7,0.2-1.3,0.5-1.8c0.3-0.6,0.8-1.1,1.3-1.4c0.6-0.3,1.1-0.5,1.7-0.5c0.5,0,1,0.1,1.5,0.4
					c0.6,0.3,1,0.7,1.3,1.2c0.3,0.5,0.4,1.1,0.4,1.7C290.1,184.9,289.9,185.5,289.6,186.1z M293.7,213.4c-0.2,0.2-0.5,0.5-0.9,0.6
					s-0.8,0.2-1.3,0.1c-0.4-0.1-0.8-0.3-1.1-0.7c-0.3-0.4-0.5-1-0.5-1.8V199c0-1.1,0-1.9,0-2.6c0-0.7,0-1.2,0.1-1.6
					c0-0.4,0.1-0.8,0.1-1c-2.2,0-3.8,0.5-5,1.4c-1.1,0.9-1.7,2.4-1.7,4.6l-0.1,12.5c0,0.9,0.1,1.7,0.4,2.5c0.3,0.8,0.7,1.5,1.2,2.1
					c0.5,0.6,1.2,1.1,2,1.4c0.8,0.3,1.8,0.4,2.9,0.3c1.1-0.1,2-0.4,2.5-1c0.5-0.6,0.9-1.2,1.1-1.8
					C293.7,215.2,293.8,214.3,293.7,213.4z"/>
				<path class="st3" d="M311,213.5c0,0.1,0,0.2,0.1,0.4c0.1,0.3,0.1,0.5,0.1,0.8c0,0.6-0.1,1.2-0.4,1.7c-0.3,0.5-0.7,0.9-1.2,1.3
					c-1,0.7-2.2,1.1-3.6,1.1c-1.2,0-2.3-0.3-3.4-0.8c-1.1-0.5-2.2-1.3-3.1-2.4c-0.9-1.1-1.7-2.4-2.2-3.9c-0.5-1.6-0.8-3.4-0.8-5.5
					l0.1-15.3c0-2.1,0.6-3.6,1.7-4.6c1.1-0.9,2.8-1.4,4.9-1.4c0,0.2-0.1,0.6-0.1,1c0,0.4-0.1,0.9-0.1,1.6c0,0.7,0,1.5,0,2.6l0.1,3.3
					h7.1c0,1.6-0.4,2.9-1.3,3.8s-2.1,1.4-3.8,1.4h-2l-0.1,7.5c0,1.5,0.1,2.7,0.4,3.7c0.3,1,0.6,1.8,1.1,2.5c1,1.2,2.2,1.8,3.7,1.8
					c0.6,0,1.3-0.1,1.9-0.3C310.3,213.7,310.7,213.6,311,213.5z"/>
				<path class="st3" d="M333,213c0.4,0.2,0.8,0.7,1.2,1.3l0.2,0.2l-0.2,0.2c-1.2,1.3-2.6,2.3-4.2,3c-1.6,0.7-3.3,1.1-5.2,1.1
					c-1.6,0-3.2-0.3-4.6-1c-1.4-0.7-2.7-1.6-3.8-2.7c-1.1-1.1-1.9-2.5-2.5-4c-0.6-1.5-0.9-3.2-0.9-5c0-1.8,0.3-3.4,0.8-5
					c0.5-1.5,1.3-2.9,2.4-4c1-1.1,2.3-2,3.7-2.7c1.5-0.7,3.1-1,4.9-1c1,0,2.1,0.2,3.3,0.4c1.2,0.3,2.3,0.8,3.3,1.4
					c1,0.7,1.9,1.5,2.5,2.6c0.7,1.1,1,2.3,1,3.8c0,1.4-0.4,2.6-1.1,3.5c-0.7,0.9-1.6,1.6-2.6,2.1c-1,0.5-2.1,0.9-3.3,1.1
					c-1.1,0.2-2.1,0.3-3,0.3c-1.3,0-2.4-0.1-3.4-0.2c-1-0.2-1.6-0.3-2-0.3c0.1,1.3,0.4,2.3,0.8,3.1c0.4,0.8,0.9,1.4,1.4,1.9
					c0.5,0.5,1.1,0.8,1.6,0.9c0.5,0.2,1,0.2,1.4,0.2c0.7,0,1.4-0.1,2.1-0.2c0.7-0.1,1.3-0.3,1.8-0.5c0.5-0.2,1-0.4,1.5-0.5
					c0.5-0.2,0.9-0.3,1.4-0.3C332.1,212.7,332.6,212.8,333,213z M324.8,197.8c-0.4,0-0.8,0.1-1.4,0.3c-0.5,0.2-1.1,0.5-1.6,0.9
					c-0.5,0.4-1,1-1.4,1.8c-0.4,0.8-0.7,1.8-0.9,3c0.6,0.2,1.4,0.3,2.4,0.5c1,0.2,2.1,0.2,3.1,0.1c1-0.1,2-0.4,2.8-0.9
					c0.8-0.5,1.2-1.3,1.3-2.5c0.1-0.9-0.3-1.6-1-2.3C327.4,198.1,326.3,197.8,324.8,197.8z"/>
				<path class="st3" d="M339,205.4c0-2.4,0.3-4.3,1-5.8c0.7-1.5,1.6-2.7,2.7-3.5c1.1-0.8,2.3-1.4,3.7-1.7c1.4-0.3,2.7-0.5,4.1-0.5
					h2.6c0.2,0.7,0.2,1.4,0.1,2.1c-0.1,0.5-0.3,1-0.7,1.5c-0.4,0.5-1.1,0.8-2,0.9c-0.6,0.1-1.2,0.2-1.8,0.4c-0.6,0.2-1.1,0.5-1.6,1
					c-0.5,0.5-0.8,1.2-1.1,2c-0.3,0.9-0.4,2.1-0.4,3.5v7.7c0,1.1,0,1.9,0,2.6c0,0.7,0,1.2,0.1,1.6c0,0.4,0.1,0.7,0.1,1
					c-2.2,0-3.8-0.4-5-1.3c-1.2-0.9-1.7-2.4-1.7-4.5V205.4z"/>
				<path class="st3" d="M358.7,204.7c1-0.6,2-1,3.2-1.3c1.2-0.3,2.5-0.5,3.8-0.5c1.8,0,3.6,0.3,5.2,0.8c-0.1-1.1-0.3-2.1-0.7-2.9
					c-0.5-1.1-1.1-1.9-2.1-2.4c-0.4-0.2-0.7-0.3-1.1-0.4c-0.4-0.1-0.9-0.1-1.4-0.1h-0.6c-0.5,0-1,0.1-1.5,0.2
					c-0.5,0.1-1,0.3-1.5,0.5c-0.5,0.2-1,0.3-1.5,0.5c-0.5,0.1-1,0.2-1.4,0.2c-0.5,0-1-0.1-1.4-0.3c-0.4-0.2-0.8-0.7-1.1-1.2
					l-0.1-0.2l0.1-0.2c1.1-1.1,2.3-2,3.7-2.7c1.4-0.7,3-1.1,4.7-1.2c0.2,0,0.3-0.1,0.5-0.1c0.1,0,0.3,0,0.4,0c1.6,0,3.1,0.3,4.4,0.9
					c1.3,0.6,2.5,1.4,3.5,2.4c2,2.2,3.1,5.1,3.1,8.6v0.4c0,3.7-0.9,6.7-2.8,9c-0.9,1.1-2,2-3.3,2.8c-1.3,0.7-2.7,1.1-4.3,1.3
					c-0.2,0-0.4,0.1-0.6,0.1c-0.2,0-0.4,0-0.7,0c-0.7,0-1.5-0.1-2.3-0.2c-0.8-0.1-1.6-0.4-2.4-0.7c-0.8-0.3-1.6-0.7-2.2-1.2
					c-0.7-0.5-1.2-1.2-1.7-2c-0.7-1-1-2.3-1.1-3.8v-0.3c0-1.4,0.3-2.5,0.8-3.4C356.9,206.1,357.7,205.3,358.7,204.7z M369.7,207.2
					c-0.5-0.1-1-0.1-1.6-0.2c-0.6-0.1-1.2-0.1-1.8-0.1c-0.5,0-1,0-1.4,0.1c-0.5,0.1-0.9,0.2-1.3,0.3c-0.9,0.3-1.6,0.7-2,1.3
					c-0.2,0.2-0.3,0.4-0.4,0.7s-0.2,0.6-0.2,0.9c0,0.1-0.1,0.3-0.1,0.5c0,0.4,0.1,0.7,0.2,1.1c0.1,0.4,0.3,0.8,0.6,1.1
					c0.3,0.4,0.7,0.7,1.2,0.9c0.5,0.2,1.3,0.4,2.2,0.4c0.3,0,0.5,0,0.6-0.1c1,0,1.9-0.3,2.6-0.8c0.4-0.2,0.7-0.5,0.9-0.8
					c0.2-0.3,0.5-0.6,0.6-1c0.4-0.7,0.7-1.4,0.8-2.1c0.1-0.7,0.2-1.4,0.2-2c0,0-0.1,0-0.1,0s0,0-0.1,0c-0.1,0-0.3-0.1-0.5-0.1
					C370.1,207.3,369.9,207.3,369.7,207.2z"/>
				<path class="st3" d="M395.6,213.5c0,0.1,0,0.2,0.1,0.4c0.1,0.3,0.1,0.5,0.1,0.8c0,0.6-0.1,1.2-0.4,1.7s-0.7,0.9-1.2,1.3
					c-1,0.7-2.2,1.1-3.6,1.1c-1.2,0-2.3-0.3-3.4-0.8c-1.1-0.5-2.2-1.3-3.1-2.4c-0.9-1.1-1.7-2.4-2.2-3.9c-0.5-1.6-0.8-3.4-0.8-5.5
					l0.1-15.3c0-2.1,0.6-3.6,1.7-4.6c1.1-0.9,2.8-1.4,4.9-1.4c0,0.2-0.1,0.6-0.1,1c0,0.4-0.1,0.9-0.1,1.6c0,0.7,0,1.5,0,2.6l0.1,3.3
					h7.1c0,1.6-0.4,2.9-1.3,3.8c-0.9,1-2.1,1.4-3.8,1.4h-2l-0.1,7.5c0,1.5,0.1,2.7,0.4,3.7c0.3,1,0.6,1.8,1.1,2.5
					c1,1.2,2.2,1.8,3.7,1.8c0.6,0,1.3-0.1,1.9-0.3C394.9,213.7,395.2,213.6,395.6,213.5z"/>
				<path class="st3" d="M417.5,213c0.4,0.2,0.8,0.7,1.2,1.3l0.2,0.2l-0.2,0.2c-1.2,1.3-2.6,2.3-4.2,3c-1.6,0.7-3.3,1.1-5.2,1.1
					c-1.6,0-3.2-0.3-4.6-1c-1.4-0.7-2.7-1.6-3.8-2.7c-1.1-1.1-1.9-2.5-2.5-4c-0.6-1.5-0.9-3.2-0.9-5c0-1.8,0.3-3.4,0.8-5
					c0.5-1.5,1.3-2.9,2.4-4c1-1.1,2.3-2,3.7-2.7c1.5-0.7,3.1-1,4.9-1c1,0,2.1,0.2,3.3,0.4c1.2,0.3,2.3,0.8,3.3,1.4
					c1,0.7,1.9,1.5,2.5,2.6c0.7,1.1,1,2.3,1,3.8c0,1.4-0.4,2.6-1.1,3.5c-0.7,0.9-1.6,1.6-2.6,2.1c-1,0.5-2.1,0.9-3.3,1.1
					c-1.1,0.2-2.1,0.3-3,0.3c-1.3,0-2.4-0.1-3.4-0.2c-1-0.2-1.6-0.3-2-0.3c0.1,1.3,0.4,2.3,0.8,3.1s0.9,1.4,1.4,1.9
					c0.5,0.5,1.1,0.8,1.6,0.9c0.5,0.2,1,0.2,1.4,0.2c0.7,0,1.4-0.1,2.1-0.2c0.7-0.1,1.3-0.3,1.8-0.5c0.5-0.2,1-0.4,1.5-0.5
					c0.5-0.2,0.9-0.3,1.4-0.3C416.7,212.7,417.1,212.8,417.5,213z M409.4,197.8c-0.4,0-0.8,0.1-1.4,0.3s-1.1,0.5-1.6,0.9
					c-0.5,0.4-1,1-1.4,1.8c-0.4,0.8-0.7,1.8-0.9,3c0.6,0.2,1.4,0.3,2.4,0.5c1,0.2,2.1,0.2,3.1,0.1c1-0.1,2-0.4,2.8-0.9
					c0.8-0.5,1.2-1.3,1.3-2.5c0.1-0.9-0.3-1.6-1-2.3C411.9,198.1,410.8,197.8,409.4,197.8z"/>
			</g>
		</g>
	</g>
</g>
<g>
</g>
<g>
</g>
<g>
</g>
<g>
</g>
<g>
</g>
<g>
</g>
</svg>
