<?xml version="1.0" encoding="utf-8"?>
<!-- Generator: Adobe Illustrator 16.0.0, SVG Export Plug-In . SVG Version: 6.00 Build 0)  -->
<!DOCTYPE svg PUBLIC "-//W3C//DTD SVG 1.1//EN" "http://www.w3.org/Graphics/SVG/1.1/DTD/svg11.dtd">
<svg version="1.1" id="Layer_1" xmlns="http://www.w3.org/2000/svg" xmlns:xlink="http://www.w3.org/1999/xlink" x="0px" y="0px"
	 width="307.3px" height="131.7px" viewBox="0 0 307.3 131.7" style="enable-background:new 0 0 307.3 131.7;" xml:space="preserve"
	>
<style type="text/css">
<![CDATA[
	.st0{fill:none;stroke:#FFFFFF;stroke-width:5;stroke-linecap:round;stroke-linejoin:round;stroke-miterlimit:10;}
]]>
</style>
<polygon class="st0" points="24,44.7 85.7,44.7 85.7,24.9 43.9,24.9 43.9,84.2 303.5,84.2 303.5,105.5 264.7,105.5 264.7,44.5 
	284.8,44.5 284.8,24.9 264.3,24.9 264.3,4.7 244.2,4.7 244.2,105.5 223.6,105.5 223.6,24.9 163.3,24.9 163.3,105.5 202,105.5 
	202,45.9 142.7,45.9 142.7,105.5 123.1,105.5 123.1,24.9 104.4,24.9 104.4,105.5 4.1,105.5 4.1,126.3 64.2,126.3 64.2,65.8 24,65.8 
	"/>
</svg>
