<?xml version="1.0" encoding="utf-8"?>
<!-- Generator: Adobe Illustrator 16.0.0, SVG Export Plug-In . SVG Version: 6.00 Build 0)  -->
<!DOCTYPE svg PUBLIC "-//W3C//DTD SVG 1.1//EN" "http://www.w3.org/Graphics/SVG/1.1/DTD/svg11.dtd">
<svg version="1.1" id="Layer_1" xmlns="http://www.w3.org/2000/svg" xmlns:xlink="http://www.w3.org/1999/xlink" x="0px" y="0px"
	 width="311.3px" height="134.3px" viewBox="0 0 311.3 134.3" style="enable-background:new 0 0 311.3 134.3;" xml:space="preserve"
	>
<style type="text/css">
<![CDATA[
	.st0{fill:none;stroke:#29303A;stroke-width:9;stroke-linecap:round;stroke-linejoin:round;stroke-miterlimit:10;}
]]>
</style>
<polygon class="st0" points="26,45.7 87.7,45.7 87.7,25.9 45.9,25.9 45.9,85.2 305.5,85.2 305.5,106.5 266.7,106.5 266.7,45.5 
	286.8,45.5 286.8,25.9 266.3,25.9 266.3,5.7 246.2,5.7 246.2,106.5 225.6,106.5 225.6,25.9 165.3,25.9 165.3,106.5 204,106.5 
	204,46.9 144.7,46.9 144.7,106.5 125.1,106.5 125.1,25.9 106.4,25.9 106.4,106.5 6.1,106.5 6.1,127.3 66.2,127.3 66.2,66.8 26,66.8 
	"/>
</svg>
